<svg xmlns="http://www.w3.org/2000/svg" viewBox="0 0 900 675" role="img" aria-labelledby="title desc">
  <title id="title">Birthday cupcake placeholder</title>
  <desc id="desc">A colorful placeholder illustration for custom cupcakes.</desc>
  <rect width="900" height="675" fill="#f5fbff"/>
  <circle cx="178" cy="112" r="134" fill="#ffd84d" opacity=".34"/>
  <circle cx="736" cy="126" r="160" fill="#ff2fa7" opacity=".14"/>
  <path d="M260 304c-15-85 60-152 143-121 43-77 165-54 173 35 72 5 105 96 50 142H299c-21-10-34-28-39-56Z" fill="#ffffff" stroke="#7f2cff" stroke-width="12"/>
  <path d="M290 358h320l-48 176H338l-48-176Z" fill="#ff2fa7"/>
  <path d="M335 358h230l-30 176H365l-30-176Z" fill="#ffd84d"/>
  <circle cx="374" cy="235" r="14" fill="#04b9ff"/>
  <circle cx="484" cy="196" r="14" fill="#ff2fa7"/>
  <circle cx="556" cy="276" r="14" fill="#ffd84d"/>
  <text x="450" y="596" text-anchor="middle" font-family="Arial, Helvetica, sans-serif" font-size="46" font-weight="900" fill="#27172d">Birthday Cupcakes</text>
</svg>
