<svg xmlns="http://www.w3.org/2000/svg" viewBox="0 0 900 675" role="img" aria-labelledby="title desc">
  <title id="title">Chocolate strawberries placeholder</title>
  <desc id="desc">A colorful placeholder illustration for chocolate covered strawberries.</desc>
  <rect width="900" height="675" fill="#fff7fc"/>
  <circle cx="720" cy="120" r="170" fill="#04b9ff" opacity=".16"/>
  <ellipse cx="450" cy="430" rx="290" ry="88" fill="#7f2cff" opacity=".12"/>
  <g transform="translate(220 150)">
    <path d="M92 44c52-58 162-43 186 33 30 96-65 195-92 250-28-55-122-154-94-250Z" fill="#ff2fa7"/>
    <path d="M92 44c60 72 134 106 186 33 30 96-65 195-92 250-28-55-122-154-94-250Z" fill="#5a2a18" opacity=".9"/>
    <path d="M132 156c36 30 76 30 116 0M116 210c48 28 94 28 140 0" fill="none" stroke="#ffd84d" stroke-width="13" stroke-linecap="round"/>
    <path d="M188 14l26 48-52 1 26-49Z" fill="#22a763"/>
  </g>
  <g transform="translate(468 178) scale(.86)">
    <path d="M92 44c52-58 162-43 186 33 30 96-65 195-92 250-28-55-122-154-94-250Z" fill="#ff2fa7"/>
    <path d="M132 156c36 30 76 30 116 0M116 210c48 28 94 28 140 0" fill="none" stroke="#ffffff" stroke-width="13" stroke-linecap="round"/>
    <path d="M188 14l26 48-52 1 26-49Z" fill="#22a763"/>
  </g>
  <text x="450" y="596" text-anchor="middle" font-family="Arial, Helvetica, sans-serif" font-size="44" font-weight="900" fill="#27172d">Chocolate Strawberries</text>
</svg>
