<svg xmlns="http://www.w3.org/2000/svg" viewBox="0 0 900 675" role="img" aria-labelledby="title desc">
  <title id="title">Farm birthday cake placeholder</title>
  <desc id="desc">A colorful placeholder illustration for a custom birthday cake.</desc>
  <rect width="900" height="675" fill="#fff7fc"/>
  <circle cx="160" cy="104" r="140" fill="#ff2fa7" opacity=".16"/>
  <circle cx="770" cy="70" r="180" fill="#04b9ff" opacity=".16"/>
  <rect x="206" y="330" width="488" height="160" rx="30" fill="#ff2fa7"/>
  <rect x="248" y="234" width="404" height="130" rx="28" fill="#ffd84d"/>
  <rect x="300" y="152" width="300" height="112" rx="26" fill="#ffffff" stroke="#7f2cff" stroke-width="12"/>
  <path d="M250 262c56 42 103 42 160 0 56 42 101 42 158 0 27 20 54 30 84 28v56H248v-84Z" fill="#7f2cff"/>
  <path d="M338 118v60M450 98v70M562 118v60" stroke="#ff2fa7" stroke-width="16" stroke-linecap="round"/>
  <circle cx="338" cy="100" r="15" fill="#ffd84d"/>
  <circle cx="450" cy="80" r="15" fill="#04b9ff"/>
  <circle cx="562" cy="100" r="15" fill="#ffd84d"/>
  <text x="450" y="574" text-anchor="middle" font-family="Arial, Helvetica, sans-serif" font-size="46" font-weight="900" fill="#27172d">Farm Birthday Cake</text>
</svg>
